<?xml version="1.0" encoding="utf-8"?>
<!-- Generator: Adobe Illustrator 28.2.0, SVG Export Plug-In . SVG Version: 6.00 Build 0)  -->
<svg version="1.1"
	 id="Layer_1" xmlns:ev="http://www.w3.org/2001/xml-events" xmlns:sodipodi="http://sodipodi.sourceforge.net/DTD/sodipodi-0.dtd" xmlns:rdf="http://www.w3.org/1999/02/22-rdf-syntax-ns" xmlns:inkscape="http://www.inkscape.org/namespaces/inkscape" xmlns:cc="http://creativecommons.org/ns" xmlns:dc="http://purl.org/dc/elements/1.1/"
	 xmlns="http://www.w3.org/2000/svg" xmlns:xlink="http://www.w3.org/1999/xlink" x="0px" y="0px" viewBox="0 0 396 504"
	 style="enable-background:new 0 0 396 504;" xml:space="preserve">
<style type="text/css">
	.st0{fill:none;stroke:#000000;stroke-width:2.25;stroke-miterlimit:3;}
</style>
<polyline class="st0" points="306.64,439.91 306.72,440.53 306.76,441.14 306.77,441.6 306.77,442.14 306.76,442.78 306.75,443.6 
	306.74,444.01 306.73,444.35 306.71,444.76 306.67,445.25 306.62,445.82 306.57,446.39 306.53,446.89 306.51,447.33 306.51,447.69 
	306.48,448.11 306.42,448.75 306.38,449.24 306.34,449.7 306.31,450.13 306.27,450.71 306.25,451.19 306.23,451.72 306.18,452.45 
	306.13,453.16 306.1,453.63 306.06,454.4 306.03,454.81 "/>
<polyline class="st0" points="303.83,448.32 304.05,448.3 304.35,448.26 304.72,448.22 305.16,448.16 305.66,448.1 306.24,448.03 
	306.89,447.94 307.54,447.86 308.12,447.79 308.62,447.73 309.06,447.67 309.43,447.63 309.72,447.59 309.95,447.57 "/>
<polyline class="st0" points="295.92,440.06 295.6,440.54 295.26,440.97 294.81,441.48 294.44,441.89 294.12,442.28 293.83,442.64 
	293.56,443.02 293.32,443.44 292.93,444.13 292.77,444.47 292.58,444.95 292.29,445.7 292.18,446.03 291.99,446.62 291.79,447.22 
	291.68,447.56 291.55,447.99 291.45,448.44 291.39,448.89 291.35,449.36 291.35,449.83 291.38,450.31 291.44,450.8 291.53,451.3 
	291.65,451.77 291.81,452.2 292,452.59 292.24,452.94 292.5,453.25 292.81,453.52 293.15,453.76 293.53,453.95 293.94,454.1 
	294.43,454.23 294.91,454.3 295.38,454.32 295.84,454.28 296.29,454.19 296.72,454.05 297.15,453.85 297.56,453.59 297.96,453.28 
	298.33,452.95 298.68,452.62 298.99,452.28 299.28,451.93 299.54,451.58 299.76,451.23 299.96,450.87 300.13,450.51 300.27,450.15 
	300.38,449.78 300.52,449.29 300.67,448.75 300.77,448.27 300.83,447.74 300.82,447.29 300.77,446.86 300.67,446.43 300.53,446.02 
	300.34,445.61 300.11,445.18 299.85,444.73 299.54,444.27 299.33,443.95 299.03,443.45 298.7,442.91 298.38,442.47 298.07,442.11 
	297.73,441.79 297.25,441.42 296.8,441.11 296.39,440.85 296,440.66 "/>
<polyline class="st0" points="283.92,441.79 284.06,442.15 284.12,442.49 284.13,442.88 284.11,443.22 284.06,443.6 284.01,443.94 
	283.96,444.35 283.88,444.84 283.78,445.41 283.65,446.06 283.51,446.7 283.41,447.24 283.33,447.69 283.28,448.05 283.22,448.61 
	283.16,449.15 283.12,449.67 283.08,450.17 283.06,450.65 283.04,451.11 283.03,451.55 283.03,451.97 283.04,452.37 283.05,452.75 
	283.18,453.25 283.47,453.59 283.92,453.79 284.43,453.87 284.93,453.89 285.41,453.86 285.87,453.78 286.32,453.64 286.75,453.45 
	287.16,453.2 287.52,452.86 287.68,452.44 287.62,451.61 287.49,451.16 287.25,450.8 286.9,450.52 286.43,450.33 285.77,450.22 
	285.19,450.18 284.69,450.21 284.26,450.31 283.92,450.47 "/>
<polyline class="st0" points="276.17,439.91 276.25,440.53 276.3,441.14 276.3,441.6 276.3,442.14 276.3,442.78 276.28,443.6 
	276.27,444.01 276.26,444.35 276.24,444.76 276.2,445.25 276.15,445.82 276.1,446.39 276.06,446.89 276.05,447.33 276.05,447.69 
	276.01,448.11 275.95,448.75 275.91,449.24 275.88,449.7 275.84,450.13 275.8,450.71 275.78,451.19 275.76,451.72 275.72,452.45 
	275.66,453.16 275.64,453.63 275.6,454.4 275.56,454.81 "/>
<polyline class="st0" points="273.35,448.32 273.57,448.3 273.87,448.26 274.24,448.22 274.68,448.16 275.18,448.1 275.76,448.03 
	276.41,447.94 277.06,447.86 277.64,447.79 278.14,447.73 278.58,447.67 278.95,447.63 279.24,447.59 279.47,447.57 "/>
<polyline class="st0" points="265.44,440.06 265.12,440.54 264.78,440.97 264.33,441.48 263.96,441.89 263.64,442.28 263.35,442.64 
	263.08,443.02 262.84,443.44 262.45,444.13 262.29,444.47 262.1,444.95 261.81,445.7 261.7,446.03 261.5,446.62 261.31,447.22 
	261.2,447.56 261.07,447.99 260.97,448.44 260.91,448.89 260.87,449.36 260.87,449.83 260.9,450.31 260.96,450.8 261.05,451.3 
	261.17,451.77 261.33,452.2 261.52,452.59 261.76,452.94 262.02,453.25 262.33,453.52 262.67,453.76 263.05,453.95 263.46,454.1 
	263.95,454.23 264.43,454.3 264.9,454.32 265.36,454.28 265.81,454.19 266.24,454.05 266.67,453.85 267.08,453.59 267.48,453.28 
	267.85,452.95 268.2,452.62 268.51,452.28 268.8,451.93 269.06,451.58 269.28,451.23 269.48,450.87 269.65,450.51 269.79,450.15 
	269.9,449.78 270.04,449.29 270.19,448.75 270.29,448.27 270.35,447.74 270.34,447.29 270.29,446.86 270.19,446.43 270.05,446.02 
	269.86,445.61 269.63,445.18 269.36,444.73 269.06,444.27 268.85,443.95 268.55,443.45 268.21,442.91 267.9,442.47 267.59,442.11 
	267.25,441.79 266.77,441.42 266.32,441.11 265.91,440.85 265.52,440.66 "/>
<polyline class="st0" points="256.91,440.34 257.05,440.75 257.16,441.23 257.24,441.78 257.28,442.4 257.29,442.84 257.29,443.29 
	257.29,443.75 257.28,444.22 257.26,444.7 257.23,445.2 257.2,445.7 257.16,446.22 257.12,446.66 257.07,447.11 257.01,447.55 
	256.95,447.99 256.88,448.43 256.81,448.87 256.73,449.31 256.64,449.75 256.54,450.19 256.44,450.64 256.33,451.13 256.23,451.57 
	256.12,452.06 256.04,452.51 255.96,453 255.91,453.45 255.86,453.94 255.84,454.08 255.82,454.24 255.87,454.35 256.07,454.42 "/>
<polyline class="st0" points="247.11,447.61 247.57,447.56 248.02,447.47 248.47,447.35 248.91,447.19 249.35,446.99 249.79,446.75 
	250.21,446.48 250.62,446.2 251,445.9 251.36,445.59 251.69,445.26 252,444.92 252.29,444.56 252.55,444.19 252.78,443.72 
	252.84,443.28 252.72,442.88 252.43,442.51 252.08,442.19 251.72,441.91 251.36,441.64 251,441.4 250.62,441.17 250.25,440.98 
	249.86,440.8 249.47,440.65 249.07,440.52 248.66,440.41 248.25,440.32 247.92,440.29 247.34,440.4 246.82,440.67 "/>
<polyline class="st0" points="245.97,440.96 246.16,441.76 246.33,442.59 246.34,442.94 246.35,443.37 246.33,443.87 246.3,444.44 
	246.27,445.17 246.25,445.73 246.25,446.12 246.25,446.48 246.23,446.92 246.2,447.46 246.16,448.2 246.15,448.71 246.14,449.36 
	246.14,449.99 246.14,450.57 246.14,451.12 246.14,451.64 246.15,452.12 246.15,452.57 246.16,452.98 246.16,453.35 246.17,453.69 
	246.18,454 246.19,454.27 "/>
<polyline class="st0" points="235.04,450.7 234.79,450.71 234.59,450.74 234.4,450.82 234.24,450.93 234.11,451.06 233.99,451.21 
	233.88,451.38 233.79,451.55 233.7,451.74 233.61,451.93 233.26,452.62 232.95,453.25 232.67,453.8 232.43,454.29 232.22,454.71 
	232.05,455.06 231.91,455.35 231.81,455.56 231.74,455.7 231.57,456.12 231.39,456.54 231.22,456.99 231.04,457.44 230.87,457.92 
	230.69,458.41 230.5,458.99 230.34,459.51 230.22,459.99 230.13,460.41 230.07,460.79 230.08,461.52 "/>
<polyline class="st0" points="230.35,450.7 230.77,451.04 231.06,451.61 231.26,452.09 231.49,452.61 231.74,453.26 232.01,453.8 
	232.34,454.11 "/>
<polyline class="st0" points="223.72,441.79 223.86,442.15 223.93,442.49 223.94,442.88 223.91,443.22 223.86,443.6 223.81,443.94 
	223.76,444.35 223.68,444.84 223.58,445.41 223.45,446.06 223.32,446.7 223.21,447.24 223.13,447.69 223.08,448.05 223.02,448.61 
	222.97,449.15 222.92,449.67 222.89,450.17 222.86,450.65 222.84,451.11 222.83,451.55 222.83,451.97 222.84,452.37 222.86,452.75 
	222.98,453.25 223.27,453.59 223.72,453.79 224.23,453.87 224.73,453.89 225.21,453.86 225.67,453.78 226.12,453.64 226.55,453.45 
	226.96,453.2 227.32,452.86 227.49,452.44 227.42,451.61 227.29,451.16 227.05,450.8 226.7,450.52 226.23,450.33 225.57,450.22 
	224.99,450.18 224.49,450.21 224.07,450.31 223.72,450.47 "/>
<polyline class="st0" points="208.18,449.26 208.35,449.88 208.44,450.46 208.46,451.07 208.44,451.64 208.36,452.26 208.27,452.83 
	208.14,453.44 208.03,454.02 208.26,453.44 208.47,452.9 208.67,452.42 208.85,451.98 209.02,451.59 209.18,451.26 209.46,450.68 
	209.73,450.22 209.96,449.87 210.34,449.41 210.72,449.04 211.21,448.7 211.76,448.54 212.04,448.82 212.21,449.18 212.3,449.54 
	212.35,449.94 212.37,450.03 212.39,450.26 212.42,450.63 212.47,451.13 212.52,451.78 212.57,452.32 212.63,452.82 212.69,453.25 
	212.75,453.64 212.82,453.96 212.84,454.13 212.88,454.33 212.95,454.48 213.09,454.59 213.34,454.6 "/>
<polyline class="st0" points="197.67,450.37 197.87,450.64 198.05,450.98 198.23,451.39 198.4,451.86 198.55,452.4 198.72,452.96 
	198.91,453.46 199.12,453.9 199.36,454.27 200.03,453.76 200.27,453.53 200.84,453.03 201.33,452.84 201.8,453.13 201.97,453.33 
	202.14,453.52 202.58,453.86 202.98,453.45 203.15,453.17 203.33,452.84 203.53,452.47 203.74,452.06 203.97,451.6 204.21,451.11 
	204.55,450.41 204.81,449.86 205.01,449.46 205.13,449.22 "/>
<polyline class="st0" points="192.68,449.09 192.47,448.81 192.14,448.6 191.78,448.52 191.57,448.55 191.12,448.76 190.65,449.22 
	190.25,449.71 189.97,450.09 189.82,450.38 189.61,450.81 189.43,451.36 189.35,451.92 189.45,452.46 189.8,452.91 190.3,453.16 
	190.77,453.2 191.2,453.1 191.57,452.94 191.85,452.76 192.02,452.64 192.36,452.3 192.69,451.86 192.97,451.37 193.13,450.93 
	193.14,450.42 193.13,449.95 193.11,449.77 193.25,450.22 193.35,450.68 193.51,451.22 193.74,451.85 194.01,452.46 194.29,452.96 
	194.58,453.36 194.97,453.79 195.39,454.2 195.78,454.51 "/>
<polyline class="st0" points="182,449.38 182.19,450 182.33,450.6 182.47,451.03 182.56,451.77 182.59,452.35 182.61,452.91 
	182.6,453.45 182.57,454.11 182.51,454.48 182.57,454.07 182.64,453.58 182.7,453.1 182.8,452.58 182.89,452.11 183,451.63 
	183.13,451.24 183.27,450.89 183.43,450.66 183.77,450.3 184.1,449.96 184.45,449.65 184.8,449.36 185.16,449.1 185.52,448.87 
	185.89,448.66 186.27,448.47 186.65,448.31 187.21,448.17 187.84,447.96 "/>
<polyline class="st0" points="171.26,442.09 171.68,442.03 172.11,441.99 172.55,441.98 172.99,442 173.45,442.03 173.91,442.1 
	174.37,442.2 174.81,442.36 175.23,442.58 175.64,442.87 176.02,443.21 176.39,443.62 176.73,444.05 177.04,444.47 177.33,444.88 
	177.59,445.29 177.83,445.69 178.03,446.08 178.22,446.47 178.37,446.84 178.56,447.45 178.69,448.01 178.76,448.51 178.76,448.96 
	178.69,449.36 178.55,449.73 178.34,450.1 178.05,450.47 177.68,450.85 177.24,451.23 176.93,451.47 176.6,451.69 176.26,451.91 
	175.89,452.1 175.51,452.29 175.12,452.46 174.7,452.61 174.27,452.76 173.83,452.89 173.36,453 172.88,453.11 172.38,453.2 
	171.92,453.36 171.43,453.5 "/>
<polyline class="st0" points="171.33,443.22 171.32,444.02 171.31,444.76 171.3,445.43 171.3,446.05 171.29,446.6 171.29,447.09 
	171.28,447.53 171.28,447.9 171.27,448.21 171.27,448.46 171.26,448.65 171.26,448.79 171.26,448.85 171.24,449.5 171.21,450.19 
	171.19,450.86 171.18,451.52 171.19,451.91 171.2,452.69 171.21,453.47 171.2,453.83 "/>
<polyline class="st0" points="200.67,412.99 201.18,412.91 201.56,412.66 201.86,412.31 202.16,411.98 202.49,411.69 202.85,411.43 
	203.23,411.2 203.64,411.01 204.08,410.85 204.55,410.73 205.05,410.64 205.55,410.58 206.02,410.55 206.49,410.54 206.94,410.56 
	207.37,410.6 207.79,410.67 208.19,410.76 208.58,410.88 209,411.06 209.36,411.29 209.67,411.57 209.92,411.9 210.16,412.39 
	210.3,412.91 210.34,413.46 210.31,413.89 210.23,414.33 210.11,414.78 209.94,415.23 209.79,415.56 209.43,416.27 209.16,416.82 
	208.98,417.3 208.88,417.7 208.74,417.93 208.11,418.23 207.37,418.56 206.67,418.62 206.91,418.72 207.34,418.77 207.94,418.78 
	208.71,418.76 209.49,418.73 210.1,418.72 210.55,418.73 210.82,418.76 211.22,418.92 211.58,419.12 211.92,419.35 212.22,419.63 
	212.49,419.95 212.73,420.31 212.93,420.72 213.11,421.16 213.21,421.67 213.17,422.15 212.99,422.62 212.65,423.07 212.33,423.39 
	211.95,423.71 211.49,424.05 210.97,424.39 210.55,424.65 210.14,424.9 209.74,425.14 209.34,425.36 208.94,425.58 208.54,425.79 
	208.15,425.98 207.76,426.17 207.38,426.35 207,426.51 206.62,426.67 206.24,426.81 205.87,426.95 205.5,427.08 205.13,427.21 
	204.63,427.42 204.09,427.64 203.59,427.82 203.12,427.94 202.66,428.01 202.17,428.05 201.68,428.08 201.21,428.09 200.74,428.1 
	200.28,428.09 199.84,428.07 199.4,428.03 198.97,427.99 "/>
<polyline class="st0" points="198.01,426.46 197.57,426.54 197.13,426.59 196.68,426.63 196.19,426.67 195.63,426.69 195,426.71 
	194.42,426.73 193.97,426.75 193.66,426.76 193.34,426.77 192.99,426.78 192.59,426.79 192.16,426.8 191.7,426.8 191.19,426.81 
	190.64,426.8 190.06,426.8 189.44,426.79 188.82,426.79 188.24,426.78 187.69,426.78 187.18,426.79 186.72,426.79 186.29,426.8 
	185.89,426.81 185.54,426.83 185.22,426.85 184.65,426.91 184.2,426.98 183.63,427.08 183.07,427.21 182.68,427.36 181.95,427.66 
	181.4,427.86 181.08,428 180.39,428.28 180.53,427.96 180.88,427.56 181.46,427.09 181.82,426.83 182.18,426.58 182.55,426.32 
	182.93,426.07 183.32,425.81 183.73,425.55 184.28,425.21 184.7,424.93 185,424.72 185.16,424.58 185.51,424.21 185.86,423.85 
	186.19,423.49 186.5,423.13 186.81,422.76 187.11,422.4 187.39,422.04 187.66,421.68 187.92,421.32 188.17,420.96 188.41,420.6 
	188.64,420.24 188.85,419.88 189.06,419.52 189.25,419.16 189.43,418.8 189.64,418.35 189.83,417.91 190,417.48 190.16,417.05 
	190.29,416.63 190.41,416.21 190.5,415.81 190.58,415.4 190.64,415.01 190.68,414.62 190.7,414.23 190.7,413.71 190.65,413.23 
	190.56,412.79 190.42,412.38 190.24,412.01 190.01,411.67 189.74,411.38 189.43,411.12 189.08,410.9 188.72,410.73 188.33,410.61 
	187.93,410.54 187.5,410.52 187.05,410.55 186.58,410.63 186.08,410.76 185.53,410.94 185.05,411.09 184.66,411.21 184.35,411.31 
	183.96,411.45 183.47,411.65 182.9,411.9 182.45,412.11 182.04,412.33 181.65,412.56 181.3,412.8 181.08,412.97 180.83,413.15 
	180.6,413.3 180.34,413.46 180.09,413.57 179.8,413.66 "/>
<polyline class="st0" points="171.63,409.83 171.22,410.43 170.79,410.98 170.56,411.24 170.22,411.63 169.76,412.15 169.35,412.64 
	168.98,413.1 168.65,413.58 168.33,414.11 168.06,414.61 167.85,414.98 167.64,415.4 167.4,416.02 167.18,416.62 167.05,416.98 
	166.91,417.39 166.65,418.15 166.4,418.91 166.26,419.33 166.14,419.73 166.04,420.14 165.96,420.55 165.9,420.97 165.86,421.4 
	165.85,421.83 165.85,422.27 165.88,422.72 165.93,423.17 165.99,423.62 166.08,424.09 166.21,424.58 166.36,425.04 166.55,425.46 
	166.76,425.85 167.01,426.21 167.29,426.53 167.59,426.82 167.93,427.08 168.31,427.3 168.71,427.49 169.14,427.65 169.61,427.78 
	170.07,427.86 170.52,427.91 170.97,427.92 171.41,427.9 171.84,427.83 172.26,427.72 172.67,427.58 173.08,427.39 173.47,427.17 
	173.86,426.91 174.24,426.61 174.64,426.26 175.01,425.91 175.35,425.55 175.68,425.19 175.97,424.82 176.24,424.45 176.49,424.08 
	176.71,423.7 176.9,423.32 177.07,422.93 177.21,422.55 177.32,422.15 177.49,421.53 177.68,420.84 177.8,420.23 177.88,419.55 
	177.88,419.09 177.84,418.64 177.77,418.2 177.65,417.78 177.49,417.36 177.31,416.94 177.09,416.51 176.84,416.06 176.55,415.6 
	176.24,415.13 175.98,414.72 175.59,414.09 175.31,413.62 175.03,413.2 174.77,412.83 174.38,412.36 173.96,411.97 173.54,411.65 
	173.15,411.36 172.78,411.11 172.42,410.88 172.08,410.69 171.76,410.54 "/>
<polyline class="st0" points="163.09,426.46 162.65,426.54 162.21,426.59 161.76,426.63 161.27,426.67 160.71,426.69 160.09,426.71 
	159.5,426.73 159.05,426.75 158.74,426.76 158.43,426.77 158.07,426.78 157.68,426.79 157.25,426.8 156.78,426.8 156.27,426.81 
	155.73,426.8 155.14,426.8 154.52,426.79 153.9,426.79 153.32,426.78 152.77,426.78 152.27,426.79 151.8,426.79 151.37,426.8 
	150.97,426.81 150.62,426.83 150.3,426.85 149.73,426.91 149.28,426.98 148.71,427.08 148.16,427.21 147.76,427.36 147.04,427.66 
	146.48,427.86 146.17,428 145.48,428.28 145.61,427.96 145.97,427.56 146.55,427.09 146.9,426.83 147.26,426.58 147.63,426.32 
	148.01,426.07 148.41,425.81 148.81,425.55 149.36,425.21 149.78,424.93 150.08,424.72 150.24,424.58 150.6,424.21 150.94,423.85 
	151.27,423.49 151.59,423.13 151.89,422.76 152.19,422.4 152.47,422.04 152.74,421.68 153.01,421.32 153.25,420.96 153.49,420.6 
	153.72,420.24 153.93,419.88 154.14,419.52 154.33,419.16 154.51,418.8 154.72,418.35 154.91,417.91 155.09,417.48 155.24,417.05 
	155.37,416.63 155.49,416.21 155.59,415.81 155.66,415.4 155.72,415.01 155.76,414.62 155.79,414.23 155.78,413.71 155.73,413.23 
	155.64,412.79 155.5,412.38 155.32,412.01 155.1,411.67 154.83,411.38 154.51,411.12 154.17,410.9 153.8,410.73 153.42,410.61 
	153.01,410.54 152.58,410.52 152.13,410.55 151.66,410.63 151.17,410.76 150.61,410.94 150.13,411.09 149.74,411.21 149.44,411.31 
	149.04,411.46 148.55,411.65 147.98,411.9 147.53,412.11 147.12,412.33 146.74,412.56 146.39,412.8 146.16,412.97 145.91,413.15 
	145.68,413.3 145.42,413.46 145.17,413.57 144.89,413.66 "/>
<polyline class="st0" points="343.72,422.42 343.4,422.44 343.14,422.48 342.9,422.58 342.71,422.71 342.52,422.88 342.38,423.06 
	342.24,423.28 342.11,423.49 341.99,423.73 341.88,423.97 341.54,424.64 341.23,425.26 340.95,425.83 340.69,426.35 340.45,426.83 
	340.24,427.25 340.06,427.63 339.9,427.95 339.76,428.23 339.65,428.46 339.57,428.64 339.51,428.77 339.34,429.16 339.18,429.56 
	339.01,429.98 338.85,430.4 338.68,430.84 338.52,431.28 338.35,431.74 338.19,432.21 338.01,432.74 337.85,433.23 337.72,433.69 
	337.6,434.13 337.51,434.52 337.44,434.89 337.39,435.22 337.38,435.57 337.4,436.15 "/>
<polyline class="st0" points="337.77,422.42 338.3,422.86 338.67,423.59 338.93,424.2 339.22,424.87 339.39,425.31 339.54,425.69 
	339.9,426.38 340.32,426.78 "/>
<polyline class="st0" points="332.15,408.73 332.22,409.25 332.27,409.76 332.3,410.29 332.31,410.7 332.31,411.19 332.31,411.74 
	332.3,412.37 332.28,413.12 332.27,413.64 332.26,413.93 332.26,414.26 332.24,414.65 332.2,415.11 332.16,415.64 332.1,416.22 
	332.05,416.81 332.01,417.34 331.98,417.82 331.97,418.24 331.97,418.6 331.94,418.92 331.9,419.37 331.85,419.94 331.81,420.41 
	331.77,420.86 331.74,421.29 331.7,421.7 331.67,422.2 331.64,422.65 331.62,423.04 331.61,423.47 331.57,424 331.53,424.64 
	331.49,425.27 331.46,425.77 331.44,426.15 331.41,426.84 331.37,427.34 331.34,427.62 "/>
<polyline class="st0" points="328.58,419.4 328.79,419.38 329.06,419.35 329.39,419.31 329.77,419.26 330.2,419.21 330.68,419.15 
	331.22,419.08 331.82,419 332.47,418.92 333.11,418.84 333.71,418.76 334.25,418.69 334.73,418.63 335.17,418.58 335.54,418.53 
	335.87,418.5 336.13,418.47 336.35,418.44 "/>
<polyline class="st0" points="319.17,420.75 319.42,421.55 319.59,422.3 319.71,422.63 319.81,423.13 319.88,423.79 319.92,424.35 
	319.94,424.89 319.95,425.41 319.94,425.93 319.91,426.53 319.88,426.96 319.83,427.23 319.89,426.71 319.97,426.1 320.07,425.5 
	320.18,424.84 320.29,424.23 320.44,423.62 320.6,423.13 320.78,422.69 320.99,422.4 321.33,422.02 321.68,421.67 322.04,421.33 
	322.4,421.02 322.76,420.72 323.13,420.45 323.51,420.2 323.89,419.97 324.28,419.76 324.67,419.58 325.07,419.41 325.78,419.24 
	326.56,418.97 "/>
<polyline class="st0" points="313.07,420.38 312.79,420.01 312.39,419.75 311.94,419.65 311.67,419.68 311.1,419.96 310.5,420.52 
	310,421.14 309.64,421.64 309.44,422 309.18,422.56 308.95,423.26 308.86,423.97 308.98,424.67 309.43,425.22 310.06,425.54 
	310.66,425.6 311.2,425.47 311.66,425.27 312.01,425.04 312.23,424.91 312.52,424.64 312.8,424.3 313.08,423.9 313.32,423.49 
	313.51,423.09 313.64,422.72 313.66,422.09 313.65,421.49 313.64,421.25 313.81,421.82 313.94,422.4 314.07,422.85 314.23,423.35 
	314.44,423.89 314.68,424.43 314.91,424.9 315.14,425.3 315.37,425.63 315.66,425.99 316,426.36 316.36,426.72 316.7,427.02 
	317.03,427.27 "/>
<polyline class="st0" points="299.41,418.5 299.85,418.46 300.29,418.38 300.71,418.29 301.14,418.16 301.56,418.01 301.98,417.84 
	302.39,417.63 302.81,417.41 303.2,417.16 303.59,416.9 303.95,416.64 304.3,416.36 304.64,416.08 304.96,415.78 305.26,415.48 
	305.55,415.16 305.82,414.83 306.07,414.5 306.31,414.15 306.56,413.68 306.67,413.22 306.64,412.8 306.47,412.4 306.15,412.03 
	305.8,411.71 305.45,411.42 305.1,411.14 304.74,410.88 304.37,410.64 304,410.41 303.62,410.21 303.24,410.02 302.86,409.85 
	302.46,409.69 302.07,409.55 301.67,409.44 301.26,409.33 300.85,409.25 300.44,409.22 299.7,409.36 299.03,409.7 "/>
<polyline class="st0" points="297.98,410.06 298.06,410.48 298.21,411.07 298.36,411.68 298.42,412.13 298.45,412.49 298.45,412.9 
	298.45,413.37 298.43,413.9 298.4,414.48 298.37,415.19 298.34,415.78 298.33,416.26 298.32,416.62 298.32,417.07 298.3,417.64 
	298.27,418.32 298.23,418.99 298.21,419.51 298.2,419.9 298.19,420.53 298.19,421.13 298.19,421.71 298.19,422.27 298.19,422.8 
	298.19,423.3 298.19,423.78 298.2,424.23 298.2,424.66 298.21,425.06 298.22,425.44 298.22,425.79 298.23,426.12 298.24,426.42 
	298.25,426.7 298.27,426.95 "/>
<polyline class="st0" points="288.04,422.42 287.72,422.44 287.46,422.48 287.22,422.58 287.02,422.71 286.84,422.88 286.69,423.06 
	286.56,423.28 286.43,423.49 286.31,423.73 286.19,423.97 285.86,424.64 285.55,425.26 285.26,425.83 285,426.35 284.77,426.83 
	284.56,427.25 284.37,427.63 284.21,427.95 284.08,428.23 283.97,428.46 283.89,428.64 283.83,428.77 283.66,429.16 283.49,429.56 
	283.33,429.98 283.16,430.4 283,430.84 282.83,431.28 282.67,431.74 282.51,432.21 282.33,432.74 282.17,433.23 282.04,433.69 
	281.92,434.13 281.83,434.52 281.76,434.89 281.71,435.22 281.7,435.57 281.72,436.15 "/>
<polyline class="st0" points="282.08,422.42 282.61,422.86 282.97,423.59 283.24,424.2 283.53,424.87 283.7,425.31 283.85,425.69 
	284.2,426.38 284.62,426.78 "/>
<polyline class="st0" points="275.62,420.38 275.35,420.01 274.94,419.75 274.5,419.65 274.23,419.68 273.66,419.96 273.05,420.52 
	272.55,421.14 272.2,421.64 272,422 271.73,422.56 271.51,423.26 271.41,423.97 271.54,424.67 271.98,425.22 272.62,425.54 
	273.21,425.6 273.76,425.47 274.21,425.27 274.57,425.04 274.78,424.91 275.07,424.64 275.35,424.3 275.64,423.9 275.88,423.49 
	276.06,423.09 276.19,422.72 276.22,422.09 276.2,421.49 276.19,421.25 276.36,421.82 276.49,422.4 276.61,422.85 276.78,423.35 
	276.99,423.89 277.22,424.43 277.45,424.9 277.68,425.3 277.92,425.63 278.21,425.99 278.55,426.36 278.91,426.72 279.25,427.02 
	279.57,427.27 "/>
<polyline class="st0" points="268.74,425.95 268.35,425.99 267.93,426.07 267.5,426.19 267.05,426.35 266.58,426.55 266.02,426.81 
	265.54,427 265.13,427.13 264.79,427.19 264.25,427.24 263.74,427.25 263.25,427.23 262.79,427.18 262.36,427.09 261.95,426.98 
	261.56,426.83 261.12,426.56 260.84,426.25 260.73,425.88 260.79,425.46 260.94,425 261.11,424.54 261.29,424.11 261.48,423.68 
	261.67,423.28 261.88,422.88 262.1,422.51 262.33,422.14 262.56,421.8 262.88,421.41 263.24,421.1 263.65,420.85 264.09,420.66 
	264.66,420.56 265.13,420.65 265.5,420.96 265.65,421.27 265.8,421.74 265.93,422.36 266.02,422.87 266.09,423.36 266.16,423.83 
	266.22,424.28 266.3,424.94 266.35,425.17 266.33,424.36 266.3,423.71 266.28,423.24 266.27,422.93 266.26,422.8 266.22,422.39 
	266.24,421.61 266.26,421.13 266.29,420.69 266.32,420.27 266.35,419.89 266.4,419.37 266.45,418.81 266.51,418.19 266.58,417.43 
	266.61,417.07 266.65,416.64 266.68,416.21 266.7,415.77 266.72,415.33 266.74,414.89 266.76,414.44 266.78,413.99 266.79,413.53 
	266.79,413.06 266.8,412.6 266.8,412.13 266.8,411.65 266.79,411.17 266.78,410.68 266.71,410.11 266.53,409.75 "/>
<polyline class="st0" points="256.27,417 256.49,417.19 256.68,417.33 256.87,417.43 257.02,417.51 "/>
<polyline class="st0" points="255.18,426.95 255.33,426.19 255.47,425.5 255.59,424.89 255.69,424.36 255.78,423.91 255.85,423.54 
	255.91,423.25 255.96,423.04 255.99,422.9 256.11,422.48 256.26,422.04 256.32,421.62 256.21,421.15 "/>
<polyline class="st0" points="250.15,409.27 250.28,409.61 250.39,409.98 250.48,410.4 250.54,410.85 250.59,411.35 250.62,411.89 
	250.63,412.29 250.63,412.7 250.63,413.12 250.63,413.55 250.62,413.98 250.6,414.42 250.58,414.86 250.56,415.32 250.53,415.78 
	250.5,416.25 250.46,416.72 250.42,417.19 250.37,417.65 250.32,418.11 250.26,418.57 250.19,419.03 250.12,419.49 250.05,419.94 
	249.97,420.4 249.88,420.86 249.78,421.31 249.68,421.76 249.55,422.35 249.4,422.96 249.27,423.53 249.15,424.15 249.05,424.72 
	248.94,425.35 248.88,425.92 248.82,426.53 248.78,426.7 248.75,426.91 248.82,427.06 249.06,427.15 "/>
<polyline class="st0" points="237.74,421.53 237.42,421.94 237.11,422.46 236.85,423.01 236.69,423.49 236.61,423.97 236.58,424.43 
	236.61,424.87 236.72,425.29 236.92,425.69 237.18,426.05 237.52,426.39 237.96,426.69 238.5,426.95 239.13,427.16 239.61,427.27 
	240.08,427.35 240.53,427.4 240.98,427.41 241.41,427.38 241.84,427.32 242.25,427.22 242.65,427.08 243.03,426.91 243.41,426.7 
	243.77,426.46 244.12,426.18 244.63,425.51 244.76,425.05 244.71,424.76 244.5,424.36 244.15,423.92 243.88,423.59 243.65,423.29 
	243.39,422.97 243.09,422.63 242.75,422.28 242.42,421.93 242.11,421.6 241.81,421.32 241.53,421.06 241.05,420.71 240.57,420.47 
	240.07,420.35 239.57,420.36 239.08,420.48 238.6,420.72 "/>
<polyline class="st0" points="231.3,417.46 230.48,417.59 230.06,417.76 229.59,417.99 228.86,418.35 228.49,418.49 228.11,418.62 
	227.7,418.72 227.28,418.82 226.84,418.89 226.38,418.96 225.91,419.01 225.41,419.04 224.9,419.06 224.39,418.93 "/>
<polyline class="st0" points="231.84,410.24 231.93,410.71 231.95,411.12 231.91,411.59 231.88,412.03 231.86,412.4 231.84,412.85 
	231.82,413.37 231.8,413.96 231.78,414.7 231.76,415.25 231.74,415.6 231.68,416.24 231.53,416.76 231.47,417.33 231.46,417.73 
	231.47,418.17 231.5,418.65 231.55,419.3 231.56,419.75 231.55,420.15 231.54,420.57 231.54,421.03 231.55,421.51 231.56,422 
	231.6,422.46 231.65,422.88 231.71,423.28 231.76,423.65 231.82,424.04 231.9,424.39 232.03,424.76 232.21,425.08 232.48,425.38 "/>
<polyline class="st0" points="225.52,409.23 225.41,410.12 225.32,410.88 225.24,411.5 225.18,411.99 225.13,412.33 225.11,412.54 
	225.1,412.62 225.04,413.02 224.99,413.44 224.92,413.89 224.86,414.35 224.79,414.82 224.71,415.31 224.64,415.81 224.56,416.33 
	224.49,416.82 224.42,417.27 224.37,417.68 224.31,418.06 224.25,418.42 224.15,418.91 224,419.52 223.86,420.15 223.77,420.68 
	223.71,421.12 223.65,421.55 223.55,422.08 223.39,422.72 223.23,423.35 223.12,423.84 223.05,424.19 222.98,424.57 222.87,425.06 
	222.72,425.67 222.57,426.28 222.46,426.79 222.39,427.19 "/>
<polygon class="st0" points="119.79,434.04 120.07,434.72 120.03,435 119.99,435.3 119.96,435.63 119.92,435.98 119.88,436.34 
	119.85,436.72 119.81,437.12 119.77,437.54 119.74,437.96 119.7,438.41 119.67,438.86 119.64,439.32 119.6,439.8 119.57,440.28 
	119.54,440.77 119.5,441.26 119.47,441.77 119.44,442.27 119.41,442.78 119.38,443.29 119.36,443.8 119.33,444.31 119.3,444.82 
	119.27,445.33 119.25,445.84 119.22,446.34 119.2,446.83 119.17,447.32 119.15,447.79 119.13,448.26 119.11,448.72 119.09,449.17 
	119.07,449.61 119.05,450.03 119.04,450.43 119.02,450.83 119,451.2 118.99,451.56 118.98,451.89 118.97,452.21 118.95,452.51 
	118.94,452.78 118.94,453.03 118.93,453.25 118.92,453.45 118.92,453.62 118.91,453.77 118.85,454.29 118.7,454.72 118.48,455.04 
	118.21,455.27 117.89,455.41 117.55,455.46 117.2,455.42 116.85,455.3 116.51,455.1 116.21,454.82 115.95,454.47 115.77,454.16 
	115.59,453.84 115.4,453.52 115.21,453.19 115.02,452.85 114.83,452.51 114.64,452.16 114.45,451.8 114.25,451.44 114.06,451.08 
	113.87,450.71 113.67,450.34 113.47,449.97 113.28,449.59 113.08,449.21 112.88,448.82 112.69,448.44 112.49,448.05 112.29,447.66 
	112.09,447.26 111.9,446.87 111.7,446.47 111.51,446.08 111.31,445.68 111.12,445.29 110.92,444.89 110.73,444.5 110.54,444.1 
	110.35,443.71 110.16,443.32 109.98,442.92 109.79,442.54 109.61,442.15 109.42,441.77 109.24,441.38 109.06,441.01 108.89,440.63 
	108.71,440.26 108.54,439.89 108.37,439.53 108.2,439.17 108.04,438.82 107.88,438.47 107.72,438.13 107.56,437.79 107.41,437.46 
	107.26,437.14 107.11,436.82 106.97,436.51 106.83,436.21 106.69,435.91 106.56,435.63 106.43,435.35 106.19,434.79 106.02,434.3 
	105.93,433.87 105.9,433.49 105.95,433.17 106.08,432.9 106.28,432.68 106.56,432.51 106.92,432.38 107.35,432.29 107.89,432.23 
	108.43,432.17 108.95,432.11 109.47,432.06 109.98,432.02 110.48,431.98 110.97,431.94 111.45,431.91 111.92,431.88 112.38,431.86 
	112.83,431.84 113.26,431.82 113.69,431.8 114.09,431.79 114.49,431.78 114.87,431.78 115.23,431.77 115.58,431.77 115.91,431.76 
	116.23,431.76 116.52,431.76 116.8,431.76 117.06,431.77 117.3,431.77 117.52,431.77 118.14,432.15 118.34,432.49 118.59,432.84 
	118.87,433.19 119.17,433.51 119.48,433.8 "/>
<polygon class="st0" points="98.48,430.23 98.24,430.3 97.99,430.36 97.73,430.43 97.45,430.51 97.16,430.59 96.86,430.66 
	96.55,430.75 96.23,430.83 95.9,430.92 95.56,431.01 95.21,431.1 94.85,431.2 94.48,431.3 94.11,431.4 93.73,431.5 93.34,431.61 
	92.94,431.72 92.54,431.83 92.13,431.94 91.72,432.06 91.3,432.18 90.88,432.3 90.46,432.42 90.03,432.54 89.6,432.67 89.17,432.8 
	88.73,432.93 88.29,433.06 87.86,433.2 87.42,433.33 86.98,433.47 86.54,433.61 86.11,433.76 85.67,433.9 85.24,434.04 84.8,434.19 
	84.37,434.34 83.95,434.49 83.52,434.64 83.11,434.79 82.69,434.95 82.28,435.1 81.88,435.26 81.48,435.42 81.09,435.58 
	80.7,435.74 80.32,435.9 79.95,436.07 79.59,436.23 79.19,436.16 79.11,435.77 79.18,435.61 79.26,435.45 79.34,435.27 
	79.42,435.08 79.51,434.88 79.6,434.67 79.7,434.45 79.8,434.22 79.91,433.98 80.02,433.73 80.14,433.47 80.26,433.2 80.38,432.93 
	80.5,432.64 80.63,432.34 80.77,432.04 80.9,431.73 81.04,431.41 81.18,431.08 81.33,430.75 81.48,430.41 81.63,430.06 
	81.78,429.71 81.94,429.35 82.09,428.98 82.25,428.61 82.42,428.23 82.58,427.84 82.75,427.45 82.92,427.06 83.08,426.66 
	83.26,426.26 83.43,425.85 83.6,425.44 83.78,425.02 83.95,424.6 84.13,424.18 84.3,423.75 84.48,423.32 84.66,422.89 84.84,422.46 
	85.02,422.02 85.2,421.58 85.38,421.14 85.56,420.7 85.73,420.26 85.91,419.81 86.09,419.37 86.27,418.92 86.45,418.47 
	86.62,418.03 86.8,417.58 86.97,417.14 87.14,416.69 87.32,416.25 87.49,415.8 87.65,415.36 87.82,414.92 87.99,414.48 
	88.15,414.04 88.31,413.61 88.47,413.17 88.63,412.74 88.78,412.32 88.94,411.89 89.09,411.47 89.23,411.05 89.38,410.64 
	89.52,410.23 89.66,409.83 89.79,409.43 89.92,409.03 90.05,408.64 90.18,408.25 90.4,407.83 90.72,407.62 91.1,407.63 
	91.44,407.84 91.66,408.22 91.67,408.24 91.69,408.3 91.72,408.39 91.77,408.51 91.84,408.67 91.91,408.86 91.99,409.08 
	92.09,409.33 92.2,409.61 92.32,409.91 92.44,410.24 92.58,410.59 92.72,410.96 92.87,411.35 93.03,411.76 93.2,412.19 
	93.37,412.63 93.55,413.09 93.73,413.57 93.92,414.05 94.11,414.54 94.31,415.05 94.5,415.56 94.7,416.08 94.91,416.6 95.11,417.13 
	95.32,417.65 95.52,418.18 95.73,418.71 95.93,419.24 96.13,419.76 96.33,420.28 96.53,420.79 96.73,421.3 96.92,421.79 
	97.1,422.28 97.29,422.75 97.47,423.21 97.64,423.65 97.8,424.08 97.96,424.49 98.11,424.88 98.26,425.26 98.39,425.61 
	98.52,425.93 98.64,426.24 98.74,426.51 98.84,426.76 98.93,426.99 99,427.18 99.06,427.34 99.22,427.8 99.34,428.23 99.41,428.61 
	99.43,428.96 99.37,429.42 99.19,429.79 98.9,430.06 "/>
<polygon class="st0" points="122.88,459.31 122.84,459.14 122.8,458.95 122.76,458.74 122.73,458.51 122.69,458.26 122.67,457.99 
	122.64,457.7 122.62,457.39 122.59,457.06 122.58,456.72 122.56,456.37 122.55,455.99 122.53,455.61 122.53,455.21 122.52,454.8 
	122.51,454.37 122.51,453.94 122.51,453.49 122.51,453.04 122.51,452.57 122.52,452.1 122.52,451.62 122.53,451.13 122.54,450.64 
	122.55,450.14 122.57,449.64 122.58,449.13 122.6,448.62 122.61,448.11 122.63,447.59 122.65,447.08 122.67,446.57 122.69,446.05 
	122.71,445.54 122.74,445.03 122.76,444.52 122.78,444.02 122.81,443.52 122.84,443.03 122.86,442.54 122.89,442.06 122.92,441.59 
	122.95,441.12 122.98,440.67 123,440.22 123.03,439.78 123.06,439.36 123.09,438.94 123.12,438.54 123.15,438.16 123.18,437.78 
	123.21,437.43 123.24,437.08 123.27,436.76 123.29,436.45 123.32,436.16 123.35,435.89 123.38,435.63 123.4,435.4 123.43,435.19 
	123.57,434.81 123.92,434.6 124.34,434.45 124.73,434.27 125.1,434.05 125.44,433.81 125.75,433.54 126.04,433.25 126.3,432.94 
	126.52,432.61 126.73,432.27 126.9,431.91 127.04,431.53 127.15,431.15 127.22,430.76 127.27,430.36 127.28,429.96 127.26,429.56 
	127.21,429.16 127.12,428.76 126.99,428.37 126.83,427.98 126.63,427.61 126.4,427.24 126.12,426.89 125.82,426.57 125.5,426.28 
	125.16,426.03 124.8,425.81 124.43,425.63 124.05,425.48 123.67,425.37 123.27,425.29 122.88,425.24 122.48,425.22 122.08,425.24 
	121.68,425.29 121.29,425.37 120.91,425.49 120.54,425.63 120.18,425.81 119.83,426.02 119.5,426.26 119.19,426.53 118.9,426.83 
	118.63,427.16 118.39,427.52 118.18,427.91 117.55,428.29 117.15,428.31 116.74,428.32 116.33,428.33 115.93,428.34 115.52,428.36 
	115.11,428.37 114.71,428.39 114.3,428.41 113.89,428.43 113.49,428.45 113.08,428.47 112.68,428.49 112.27,428.52 111.87,428.54 
	111.46,428.57 111.05,428.6 110.65,428.62 110.24,428.65 109.84,428.68 109.43,428.72 109.03,428.75 108.62,428.78 108.22,428.82 
	107.81,428.85 107.41,428.89 107,428.93 106.6,428.97 106.19,429.01 105.79,429.05 105.32,429.05 104.88,428.97 104.47,428.8 
	104.09,428.56 103.74,428.26 103.47,427.96 103.22,427.63 102.99,427.28 102.8,426.91 102.64,426.54 102.49,426.17 102.34,425.8 
	102.19,425.43 102.04,425.06 101.88,424.69 101.73,424.32 101.58,423.95 101.43,423.58 101.28,423.21 101.14,422.84 100.99,422.47 
	100.84,422.1 100.69,421.73 100.54,421.36 100.39,420.99 100.24,420.62 100.09,420.25 99.94,419.88 99.8,419.51 99.65,419.14 
	99.5,418.77 99.35,418.4 99.2,418.03 99.06,417.66 98.91,417.29 98.76,416.92 98.61,416.55 98.47,416.18 98.32,415.8 98.17,415.43 
	98.03,415.06 97.88,414.69 97.73,414.32 97.59,413.95 97.44,413.58 97.29,413.21 97.15,412.84 97,412.47 96.85,412.1 96.71,411.72 
	96.56,411.35 96.41,410.98 96.27,410.61 96.12,410.24 95.98,409.87 95.83,409.5 95.68,409.12 95.54,408.75 95.39,408.38 
	95.25,408.01 95.1,407.64 94.95,407.27 94.81,406.89 94.68,406.49 94.6,406.07 94.57,405.65 94.59,405.23 94.65,404.82 
	94.77,404.42 94.94,404.03 95.15,403.67 95.41,403.33 95.69,402.98 95.93,402.62 96.15,402.25 96.35,401.88 96.51,401.5 
	96.65,401.11 96.76,400.72 96.84,400.33 96.9,399.94 96.93,399.54 96.94,399.15 96.92,398.76 96.88,398.37 96.82,397.99 
	96.73,397.61 96.62,397.23 96.49,396.87 96.34,396.51 96.17,396.16 95.97,395.82 95.76,395.5 95.53,395.19 95.27,394.89 95,394.6 
	94.71,394.34 94.41,394.09 94.08,393.86 93.74,393.64 93.39,393.45 93.01,393.29 92.63,393.14 92.22,393.02 91.81,392.92 
	91.38,392.85 90.93,392.81 90.49,392.8 90.05,392.81 89.63,392.86 89.21,392.93 88.81,393.03 88.42,393.15 88.04,393.29 
	87.68,393.46 87.33,393.65 87,393.86 86.68,394.09 86.37,394.34 86.09,394.6 85.82,394.89 85.56,395.18 85.33,395.49 85.12,395.82 
	84.92,396.15 84.75,396.5 84.59,396.86 84.46,397.22 84.35,397.6 84.26,397.98 84.2,398.36 84.16,398.76 84.14,399.15 84.15,399.55 
	84.19,399.95 84.25,400.35 84.34,400.75 84.45,401.14 84.6,401.54 84.77,401.93 84.97,402.31 85.21,402.69 85.42,403.06 
	85.58,403.44 85.7,403.84 85.76,404.25 85.78,404.66 85.76,405.08 85.68,405.49 85.55,405.89 85.46,406.13 85.37,406.37 
	85.28,406.61 85.18,406.86 85.09,407.11 84.99,407.37 84.89,407.63 84.78,407.89 84.68,408.16 84.57,408.43 84.47,408.71 
	84.36,408.99 84.24,409.27 84.13,409.56 84.02,409.85 83.9,410.15 83.78,410.44 83.67,410.74 83.54,411.05 83.42,411.36 
	83.3,411.67 83.17,411.98 83.05,412.3 82.92,412.62 82.79,412.94 82.66,413.27 82.52,413.6 82.39,413.93 82.25,414.27 82.12,414.61 
	81.98,414.95 81.84,415.29 81.7,415.64 81.56,415.99 81.41,416.34 81.27,416.69 81.12,417.05 80.97,417.41 80.83,417.77 
	80.68,418.13 80.52,418.5 80.37,418.87 80.22,419.24 80.06,419.61 79.91,419.98 79.75,420.36 79.59,420.73 79.43,421.11 
	79.27,421.5 79.11,421.88 78.95,422.26 78.79,422.65 78.62,423.04 78.46,423.43 78.29,423.82 78.12,424.21 77.95,424.6 77.78,425 
	77.61,425.39 77.44,425.79 77.27,426.19 77.1,426.59 76.92,426.99 76.75,427.39 76.57,427.79 76.4,428.2 76.22,428.6 76.04,429 
	75.86,429.41 75.68,429.82 75.5,430.22 75.32,430.63 75.14,431.04 74.96,431.45 74.77,431.85 74.59,432.26 74.41,432.67 
	74.22,433.08 74.03,433.49 73.85,433.9 73.66,434.31 73.47,434.72 73.29,435.13 73.1,435.54 72.91,435.95 72.72,436.36 
	72.53,436.76 72.34,437.17 72.15,437.58 71.96,437.99 71.76,438.4 71.57,438.8 71.38,439.21 71.19,439.61 70.99,440.02 70.8,440.42 
	70.61,440.82 70.41,441.23 70.22,441.63 70.02,442.03 69.83,442.43 69.63,442.83 69.43,443.22 69.24,443.62 69.04,444.01 
	68.85,444.41 68.65,444.8 68.45,445.19 68.26,445.58 68.06,445.96 67.86,446.35 67.67,446.74 67.47,447.12 67.27,447.5 
	67.07,447.88 66.88,448.26 66.68,448.63 66.48,449 66.28,449.38 66.09,449.74 65.89,450.11 65.69,450.48 65.5,450.84 65.3,451.2 
	65.1,451.56 64.9,451.91 64.71,452.27 64.51,452.62 64.31,452.97 64.12,453.31 63.92,453.66 63.73,454 63.53,454.34 63.34,454.67 
	63.14,455 62.95,455.33 62.75,455.66 62.56,455.98 62.37,456.3 62.17,456.62 61.98,456.93 61.79,457.24 61.63,457.5 61.47,457.75 
	61.31,458.02 61.14,458.29 60.97,458.56 60.79,458.84 60.61,459.12 60.42,459.4 60.23,459.68 60.03,459.96 59.81,460.25 
	59.59,460.54 59.36,460.82 59.12,461.11 58.87,461.39 58.61,461.67 58.33,461.95 58.04,462.23 57.74,462.5 57.43,462.77 
	57.1,463.04 56.75,463.3 56.39,463.55 56.01,463.8 55.61,464.05 55.19,464.28 54.76,464.51 54.3,464.73 53.83,464.95 53.34,465.15 
	52.82,465.34 52.28,465.53 52.28,466.04 52.28,466.46 52.28,466.82 52.28,467.17 52.28,467.55 52.28,468 52.68,468 53.08,468 
	53.48,468 53.88,468 54.28,468 54.68,468 55.08,468 55.47,468 55.87,468 56.27,468 56.67,468 57.07,468 57.47,468 57.87,468 
	58.27,468 58.67,468 59.07,468 59.47,468 59.86,468 60.26,468 60.66,468 61.06,468 61.46,468 61.86,468 62.26,468 62.66,468 
	63.06,468 63.45,468 63.85,468 64.25,468 64.65,468 65.05,468 65.45,468 65.85,468 66.25,468 66.64,468 67.04,468 67.44,468 
	67.84,468 67.84,467.49 67.84,467.07 67.84,466.69 67.84,466.33 67.84,465.95 67.84,465.53 67.47,465.35 67.16,465.12 66.91,464.85 
	66.71,464.54 66.56,464.2 66.46,463.83 66.4,463.43 66.37,463.01 66.38,462.58 66.42,462.14 66.48,461.7 66.57,461.25 66.67,460.81 
	66.79,460.38 66.91,459.96 67.04,459.57 67.18,459.19 67.31,458.85 67.44,458.54 67.55,458.27 67.68,457.99 67.82,457.7 
	67.96,457.4 68.12,457.08 68.27,456.75 68.44,456.42 68.61,456.07 68.79,455.72 68.98,455.35 69.16,454.98 69.36,454.6 
	69.56,454.21 69.76,453.82 69.97,453.43 70.18,453.03 70.39,452.62 70.61,452.21 70.82,451.8 71.04,451.39 71.27,450.97 
	71.49,450.56 71.71,450.14 71.94,449.73 72.16,449.31 72.38,448.9 72.6,448.49 72.82,448.08 73.04,447.68 73.26,447.28 
	73.48,446.88 73.69,446.5 73.9,446.11 74.1,445.74 74.3,445.37 74.5,445.01 74.69,444.66 74.88,444.31 75.06,443.98 75.24,443.66 
	75.41,443.35 75.57,443.05 75.73,442.76 75.88,442.49 76.02,442.23 76.16,441.98 76.28,441.75 76.4,441.54 76.71,441.24 
	77.12,441.05 77.53,440.86 77.94,440.67 78.34,440.48 78.74,440.3 79.13,440.12 79.53,439.95 79.92,439.78 80.31,439.61 
	80.69,439.44 81.08,439.28 81.46,439.12 81.84,438.96 82.22,438.8 82.59,438.65 82.97,438.5 83.34,438.36 83.71,438.21 
	84.08,438.07 84.45,437.93 84.82,437.79 85.19,437.65 85.55,437.52 85.92,437.39 86.28,437.26 86.65,437.13 87.01,437 87.38,436.88 
	87.74,436.76 88.1,436.64 88.47,436.52 88.83,436.4 89.19,436.29 89.56,436.17 89.92,436.06 90.29,435.95 90.65,435.84 
	91.02,435.73 91.38,435.62 91.75,435.52 92.12,435.41 92.49,435.3 92.86,435.2 93.24,435.1 93.61,435 93.99,434.9 94.37,434.8 
	94.75,434.7 95.13,434.6 95.51,434.5 95.9,434.4 96.29,434.3 96.68,434.2 97.07,434.11 97.47,434.01 97.87,433.91 98.27,433.82 
	98.67,433.72 99.08,433.62 99.49,433.53 100.06,433.45 100.56,433.47 101,433.6 101.39,433.8 101.72,434.06 102,434.36 
	102.25,434.7 102.46,435.05 102.64,435.4 102.79,435.73 102.93,436.02 103.22,436.62 103.5,437.2 103.78,437.76 104.04,438.32 
	104.31,438.86 104.56,439.39 104.81,439.9 105.06,440.41 105.3,440.9 105.54,441.38 105.77,441.85 105.99,442.31 106.21,442.76 
	106.43,443.2 106.64,443.63 106.85,444.05 107.05,444.46 107.25,444.86 107.44,445.25 107.63,445.63 107.82,446.01 108,446.38 
	108.18,446.73 108.35,447.09 108.52,447.43 108.69,447.77 108.86,448.1 109.02,448.43 109.18,448.75 109.34,449.06 109.49,449.37 
	109.64,449.68 109.79,449.98 109.94,450.27 110.09,450.56 110.23,450.85 110.37,451.13 110.51,451.41 110.65,451.69 110.78,451.96 
	110.92,452.23 111.05,452.5 111.18,452.77 111.32,453.04 111.45,453.3 111.58,453.57 111.7,453.83 111.83,454.09 111.96,454.35 
	112.09,454.62 112.22,454.88 112.34,455.14 112.47,455.41 112.6,455.67 112.73,455.94 112.86,456.21 112.99,456.48 113.18,456.88 
	113.38,457.3 113.58,457.72 113.79,458.15 114,458.58 114.2,459.02 114.4,459.46 114.59,459.9 114.78,460.34 114.95,460.78 
	115.1,461.21 115.23,461.63 115.35,462.05 115.44,462.45 115.51,462.84 115.54,463.21 115.55,463.56 115.52,463.9 115.46,464.21 
	115.36,464.5 115.21,464.76 115.03,465 114.79,465.21 114.51,465.38 114.18,465.53 114.18,465.95 114.18,466.36 114.18,466.76 
	114.18,467.17 114.18,467.58 114.18,468 114.57,468 114.97,468 115.37,468 115.77,468 116.17,468 116.57,468 116.97,468 117.37,468 
	117.76,468 118.16,468 118.56,468 118.96,468 119.36,468 119.76,468 120.16,468 120.56,468 120.96,468 121.36,468 121.76,468 
	122.15,468 122.55,468 122.95,468 123.35,468 123.75,468 124.15,468 124.55,468 124.95,468 125.35,468 125.75,468 126.15,468 
	126.54,468 126.94,468 127.34,468 127.74,468 128.14,468 128.54,468 128.94,468 129.34,468 129.73,468 129.73,467.58 129.73,467.17 
	129.73,466.76 129.73,466.36 129.73,465.95 129.73,465.53 129.32,465.47 128.92,465.38 128.52,465.28 128.13,465.15 127.74,465.01 
	127.37,464.85 127.01,464.66 126.65,464.46 126.31,464.25 125.98,464.01 125.66,463.76 125.36,463.49 125.06,463.21 124.78,462.92 
	124.52,462.61 124.27,462.28 124.04,461.95 123.82,461.6 123.62,461.24 123.43,460.88 123.27,460.5 123.12,460.11 122.99,459.71 "/>
<polygon class="st0" points="88.06,399.2 88.07,398.93 88.11,398.66 88.18,398.41 88.28,398.16 88.39,397.93 88.54,397.71 
	88.7,397.51 88.88,397.33 89.08,397.16 89.29,397.02 89.52,396.9 89.77,396.8 90.02,396.73 90.29,396.69 90.56,396.67 90.84,396.68 
	91.1,396.72 91.36,396.79 91.6,396.89 91.84,397.01 92.05,397.15 92.25,397.31 92.44,397.49 92.6,397.69 92.74,397.91 92.87,398.14 
	92.96,398.38 93.03,398.64 93.08,398.9 93.1,399.18 93.08,399.45 93.04,399.72 92.97,399.97 92.88,400.22 92.76,400.45 
	92.62,400.67 92.45,400.87 92.27,401.05 92.07,401.21 91.86,401.36 91.63,401.48 91.38,401.58 91.13,401.65 90.86,401.69 
	90.59,401.71 90.31,401.7 90.05,401.66 89.79,401.59 89.55,401.49 89.31,401.38 89.1,401.23 88.9,401.07 88.71,400.89 88.55,400.69 
	88.41,400.48 88.28,400.25 88.19,400 88.12,399.74 88.07,399.48 "/>
<polygon class="st0" points="121.06,430.01 121.08,429.75 121.14,429.51 121.25,429.28 121.39,429.08 121.56,428.91 121.76,428.76 
	121.99,428.66 122.23,428.59 122.49,428.57 122.75,428.59 123,428.65 123.22,428.76 123.42,428.9 123.6,429.07 123.74,429.27 
	123.85,429.49 123.91,429.74 123.94,430 123.92,430.25 123.85,430.5 123.75,430.72 123.6,430.92 123.43,431.1 123.23,431.24 
	123.01,431.35 122.76,431.42 122.51,431.45 122.25,431.42 122,431.36 121.78,431.25 121.58,431.11 121.4,430.93 121.26,430.73 
	121.15,430.51 121.08,430.27 "/>
</svg>
